<?xml version="1.0" encoding="utf-8"?>
<!-- Generator: Adobe Illustrator 21.1.0, SVG Export Plug-In . SVG Version: 6.00 Build 0)  -->
<svg version="1.1" id="Layer_1" xmlns="http://www.w3.org/2000/svg" xmlns:xlink="http://www.w3.org/1999/xlink" x="0px" y="0px"
	 viewBox="0 0 24 13.4" style="enable-background:new 0 0 24 13.4;" xml:space="preserve">
<style type="text/css">
	.st0{fill:#FFFFFF;}
</style>
<title>Group Copy</title>
<desc>Created with Sketch.</desc>
<title>Group</title>
<desc>Created with Sketch.</desc>
<g id="Page-1">
	<g id="Event-page" transform="translate(-1009.000000, -524.000000)">
		<g id="Group" transform="translate(1009.000000, 524.000000)">
			<path class="st0" d="M0,6.7c0-0.2,0-0.3,0.1-0.5c0.1-0.2,0.3-0.4,0.5-0.5l11.3-5.7C12.1,0,12.2,0,12.4,0c0.4,0,0.8,0.2,0.9,0.6
				c0.1,0.1,0.1,0.3,0.1,0.5v3.6l9-4.5C22.6,0,22.8,0,22.9,0c0.4,0,0.8,0.2,0.9,0.6C24,0.7,24,0.9,24,1.1v11.3
				c0,0.6-0.5,1.1-1.1,1.1c-0.2,0-0.3,0-0.5-0.1l-9-4.5v3.6c0,0.6-0.5,1.1-1.1,1.1c-0.2,0-0.3,0-0.5-0.1L0.6,7.7
				C0.2,7.5,0,7.1,0,6.7z"/>
		</g>
	</g>
</g>
</svg>
