<?xml version="1.0" encoding="utf-8"?>
<!-- Generator: Adobe Illustrator 21.1.0, SVG Export Plug-In . SVG Version: 6.00 Build 0)  -->
<svg version="1.1" id="Layer_1" xmlns="http://www.w3.org/2000/svg" xmlns:xlink="http://www.w3.org/1999/xlink" x="0px" y="0px"
	 viewBox="0 0 30 30" style="enable-background:new 0 0 30 30;" xml:space="preserve">
<style type="text/css">
	.st0{fill:#1DB954;}
</style>
<path id="Page-1" class="st0" d="M4.4,4.4c5.9-5.9,15.4-5.9,21.2,0c1,1,1,2.6,0,3.5s-2.6,1-3.5,0C18.2,4,11.8,4,7.9,7.9
	S4,18.2,7.9,22.1c3.9,3.9,10.2,3.9,14.1,0c1-1,2.6-1,3.5,0c1,1,1,2.6,0,3.5c-5.9,5.9-15.4,5.9-21.2,0C-1.5,19.8-1.5,10.2,4.4,4.4z"
	/>
</svg>
