<?xml version="1.0" encoding="utf-8"?>
<!-- Generator: Adobe Illustrator 21.1.0, SVG Export Plug-In . SVG Version: 6.00 Build 0)  -->
<svg version="1.1" id="Layer_1" xmlns="http://www.w3.org/2000/svg" xmlns:xlink="http://www.w3.org/1999/xlink" x="0px" y="0px"
	 viewBox="0 0 24 13.4" style="enable-background:new 0 0 24 13.4;" xml:space="preserve">
<style type="text/css">
	.st0{fill:#FFFFFF;}
</style>
<title>Group</title>
<desc>Created with Sketch.</desc>
<g id="Page-1">
	<g id="Event-page" transform="translate(-1009.000000, -524.000000)">
		<g id="Group" transform="translate(1009.000000, 524.000000)">
			<path class="st0" d="M24,6.7c0,0.2,0,0.3-0.1,0.5c-0.1,0.2-0.3,0.4-0.5,0.5l-11.3,5.7c-0.1,0.1-0.3,0.1-0.5,0.1
				c-0.4,0-0.8-0.2-0.9-0.6c-0.1-0.1-0.1-0.3-0.1-0.5V8.8l-9,4.5c-0.1,0.1-0.3,0.1-0.5,0.1c-0.4,0-0.8-0.2-0.9-0.6
				C0,12.7,0,12.6,0,12.4V1.1C0,0.5,0.5,0,1.1,0c0.2,0,0.3,0,0.5,0.1l9,4.5V1.1C10.5,0.5,11,0,11.6,0c0.2,0,0.3,0,0.5,0.1l11.3,5.7
				C23.8,6,24,6.3,24,6.7z"/>
		</g>
	</g>
</g>
</svg>
