<?xml version="1.0" encoding="utf-8"?>
<!-- Generator: Adobe Illustrator 21.1.0, SVG Export Plug-In . SVG Version: 6.00 Build 0)  -->
<svg version="1.1" id="Layer_1" xmlns="http://www.w3.org/2000/svg" xmlns:xlink="http://www.w3.org/1999/xlink" x="0px" y="0px"
	 viewBox="0 0 20 22" style="enable-background:new 0 0 20 22;" xml:space="preserve">
<style type="text/css">
	.st0{fill:#FFFFFF;}
</style>
<g id="Group-2" transform="translate(46.000000, 0.000000)">
	<path id="Rectangle-5" class="st0" d="M-44,0h2c1.1,0,2,0.9,2,2v18c0,1.1-0.9,2-2,2h-2c-1.1,0-2-0.9-2-2V2C-46,0.9-45.1,0-44,0z"/>
	<path id="Rectangle-5-Copy" class="st0" d="M-30,0h2c1.1,0,2,0.9,2,2v18c0,1.1-0.9,2-2,2h-2c-1.1,0-2-0.9-2-2V2
		C-32,0.9-31.1,0-30,0z"/>
</g>
</svg>
